<?xml version="1.0" encoding="UTF-8" standalone="no"?>
<!-- Created with Inkscape (http://www.inkscape.org/) -->

<svg
   width="210mm"
   height="297mm"
   viewBox="0 0 210 297"
   version="1.1"
   id="svg562"
   inkscape:export-filename="mobile_fouz.png"
   inkscape:export-xdpi="46.08"
   inkscape:export-ydpi="46.08"
   inkscape:version="1.2.2 (732a01da63, 2022-12-09)"
   xmlns:inkscape="http://www.inkscape.org/namespaces/inkscape"
   xmlns:sodipodi="http://sodipodi.sourceforge.net/DTD/sodipodi-0.dtd"
   xmlns="http://www.w3.org/2000/svg"
   xmlns:svg="http://www.w3.org/2000/svg">
  <sodipodi:namedview
     id="namedview564"
     pagecolor="#ffffff"
     bordercolor="#666666"
     borderopacity="1.0"
     inkscape:showpageshadow="2"
     inkscape:pageopacity="0.0"
     inkscape:pagecheckerboard="0"
     inkscape:deskcolor="#d1d1d1"
     inkscape:document-units="mm"
     showgrid="false"
     inkscape:zoom="0.2102413"
     inkscape:cx="394.78447"
     inkscape:cy="561.25984"
     inkscape:window-width="1280"
     inkscape:window-height="747"
     inkscape:window-x="-8"
     inkscape:window-y="-8"
     inkscape:window-maximized="1"
     inkscape:current-layer="g360" />
  <defs
     id="defs559" />
  <g
     inkscape:label="Capa 1"
     inkscape:groupmode="layer"
     id="layer1">
    <g
       id="g360"
       transform="matrix(1.2250484,0,0,1.6557173,-129.26433,-1208.8002)">
		
		<path
   fill="#00aeef"
   d="m 327.907,706.553 c -2.169,-8.085 -10.481,-12.881 -18.566,-10.712 l -89.178,23.924 c -8.085,2.17 -12.881,10.482 -10.711,18.566 l 12.299,45.848 h 14.56 l -9.59,-35.745 c -1.217,-4.538 1.475,-9.204 6.014,-10.422 l 74.854,-20.081 c 4.539,-1.218 9.206,1.475 10.424,6.013 l 16.16,60.235 h 14.56 z m -47.873,10.094 -24.58,6.824 c -0.84,0.233 -1.71,-0.259 -1.944,-1.099 -0.233,-0.841 0.259,-1.711 1.099,-1.944 l 24.581,-6.824 c 0.839,-0.232 1.71,0.259 1.943,1.099 0.234,0.841 -0.258,1.711 -1.099,1.944 z"
   id="path320" />

		<path
   fill="#39b54a"
   d="m 371.358,868.516 -8.816,-32.859 h -14.56 l 6.105,22.757 c 1.217,4.539 -1.476,9.205 -6.015,10.422 l -74.854,20.082 c -4.539,1.218 -9.206,-1.475 -10.423,-6.014 l -7.339,-27.355 h -14.56 l 12.004,44.746 c 2.169,8.085 10.481,12.881 18.565,10.712 l 89.179,-23.925 c 8.086,-2.169 12.882,-10.481 10.714,-18.566 z m -58.254,27.078 c -3.255,0 -5.894,-2.639 -5.894,-5.895 0,-3.255 2.639,-5.893 5.894,-5.893 3.256,0 5.894,2.638 5.894,5.893 0,3.256 -2.638,5.895 -5.894,5.895 z"
   id="path322" />

		<polygon
   fill="#00aeef"
   points="112.847,784.179 112.847,824.438 126.192,824.438 126.192,828.691 107.163,828.691 107.163,780.021 235.195,780.021 236.311,784.179 "
   id="polygon324" />

		<polygon
   fill="#39b54a"
   points="443.904,828.691 443.904,839.596 361.457,839.596 347.982,835.656 440.45,835.656 440.45,828.691 "
   id="polygon326" />

		
	<text
   xml:space="preserve"
   style="font-style:normal;font-variant:normal;font-weight:bold;font-stretch:normal;font-size:35.1268px;line-height:1.25;font-family:Calibri;-inkscape-font-specification:'Calibri Bold';letter-spacing:0.49214px;stroke-width:0.182952"
   x="165.0106"
   y="656.45148"
   id="text802"
   transform="scale(0.79500487,1.2578539)"><tspan
     sodipodi:role="line"
     id="tspan800"
     style="font-style:normal;font-variant:normal;font-weight:bold;font-stretch:normal;font-family:Calibri;-inkscape-font-specification:'Calibri Bold';fill:#005500;stroke-width:0.182952"
     x="165.0106"
     y="656.45148">https://github.com/gfouz</tspan></text>
<text
   xml:space="preserve"
   style="font-style:normal;font-variant:normal;font-weight:300;font-stretch:normal;font-size:23.2786px;line-height:1.25;font-family:Calibri;-inkscape-font-specification:'Calibri Light';letter-spacing:0.326142px;stroke-width:0.121243;fill:#000000"
   x="66.526855"
   y="1329.1232"
   id="text856"
   transform="scale(1.5721876,0.63605641)"><tspan
     sodipodi:role="line"
     id="tspan854"
     style="font-style:normal;font-variant:normal;font-weight:300;font-stretch:normal;font-family:Calibri;-inkscape-font-specification:'Calibri Light';stroke-width:0.121243;fill:#000000"
     x="66.526855"
     y="1329.1232">fouz.js web dev</tspan></text>
</g>
  </g>
</svg>
